<mxfile host="app.diagrams.net" modified="2023-04-24T12:00:40.047Z" agent="Mozilla/5.0 (X11; Ubuntu; Linux x86_64; rv:109.0) Gecko/20100101 Firefox/111.0" version="21.2.1" etag="ifvtboXKy4YimDZBkoNV" type="github">
  <diagram name="Страница 1" id="rtdNBR4lUN7ThJnnz4Nj">
    <mxGraphModel>
      <root>
        <mxCell id="0" />
        <mxCell id="1" parent="0" />
      </root>
    </mxGraphModel>
  </diagram>
</mxfile>
